# xmcd
#
# Track frame offsets:
#	150
#	26884
#	59510
#	89085
#	121901
#	153475
#	180921
#	199091
#	227891
#
# Disc length: 3357 seconds
#
# Revision: 0
# Processed by: cddbd v1.5.2PL0 Copyright (c) Steve Scherf et al.
# Submitted via: EasyCDDAExtractor 2010.6.0.0
#
DISCID=780d1b09
DTITLE=Gaelle - Give It Back
DYEAR=2007
DGENRE=House
TTITLE0=Give It Back (Grant Nelson remix)
TTITLE1=Give It Back (Electro Funk Lovers remix)
TTITLE2=Give It Back (E-Squire remix)
TTITLE3=Give It Back (Dirty South remix)
TTITLE4=Give It Back (Dirty South dub remix)
TTITLE5=Give It Back (Eric's Wollman dub remix)
TTITLE6=Give It Back (T and F Molosugo remix)
TTITLE7=Give It Back (Hotline remix)
TTITLE8=Give It Back (Putsch 79 remix)
EXTD=
EXTT0=
EXTT1=
EXTT2=
EXTT3=
EXTT4=
EXTT5=
EXTT6=
EXTT7=
EXTT8=
PLAYORDER=
